<?xml version="1.0" encoding="UTF-8"?>
<svg version="1.1" viewBox="0 0 1080 2336" xmlns="http://www.w3.org/2000/svg">
<title>iphone-screen</title>
<desc>Created with Sketch.</desc>
<g fill="none" fill-rule="evenodd">
<g fill="#000" fill-rule="nonzero">
<path d="m777.86 88.505c-25.119-8e-6 -87.365-0.086232-235.12-0.31249-1.809-0.0027703-1.809-0.0027703-3.6179-0.0055409-161.18-0.24688-211.36-0.31803-233.49-0.31804-28.207-0.19048-47.211-11.513-58.51-30.619-7.4555-12.607-10.72-27.431-10.72-37.94 0-12.319-4.8418-18.582-17.956-18.582h-59.305-48.25c-27.834 0-54.985 9.9246-75.078 28.332-22.519 20.631-35.159 50.634-35.159 88.203v35.82 73.912 240.33 698.33 495.02 382.41 118.8 35.582 17.524c0 34.369 8.6658 63.361 26.765 84.269 20.67 23.878 53.125 36.719 98.097 36.719h154.7 254.59 255.37 154.42c90.745 0 135.06-41.906 135.06-122.9v-35.669-73.657-239.57-696.21-690.15-239.89-113.67c0-45.44-13.661-77.755-38.557-98.043-20.74-16.901-48.665-24.853-79.945-24.853h-45.264-51.48c-16.083 0-20.502 4.2986-20.502 19.227-0.2881 15.261-6.0602 32.057-16.137 44.744-11.915 15.001-28.866 23.465-49.917 23.169l0.0059-0.0019291z"/>
</g>
</g>
</svg>
