<?xml version="1.0" encoding="UTF-8"?>
<svg version="1.1" viewBox="0 0 1411 2664" xmlns="http://www.w3.org/2000/svg" xmlns:xlink="http://www.w3.org/1999/xlink">
<title>iPhone X</title>
<defs>
<path id="b" d="m224.59 3.4106e-13c152.69 0 651.52 1.4399e-13 780.02 1.4399e-13 128.5 0 228.39 51.283 228.39 224.53v2008.7c0 92.503-4.4536 253.15-216.95 253.15h-822.64c-92.672 0-193.41-55.867-193.41-214.35 4.8125e-15 -158.49 4.9254e-15 -1885.3 0-2047.5 0-184.9 115.54-224.53 224.59-224.53z"/>
<filter id="f" x="-10.9%" y="-5.4%" width="121.9%" height="110.9%">
<feOffset dx="0" dy="0" in="SourceAlpha" result="shadowOffsetOuter1"/>
<feGaussianBlur in="shadowOffsetOuter1" result="shadowBlurOuter1" stdDeviation="45"/>
<feColorMatrix in="shadowBlurOuter1" values="0 0 0 0 0   0 0 0 0 0   0 0 0 0 0  0 0 0 0.1 0"/>
</filter>
<path id="a" d="m777.87 88.005c45.186 0.63606 65.023-39.443 65.551-67.423 0-14.841 4.278-19.718 21.002-19.718h96.744c55.36 0 119 25.442 119 123.4v2088.8c0 78.872-42.004 123.4-135.56 123.4h-819.08c-95.45 0-125.36-57.882-125.36-121.49v-2097.7c0-80.144 57.278-117.04 110.74-117.04h107.55c15.274 0 18.456 8.9049 18.456 19.082 0 10.177 5.4903 67.631 68.733 68.059 53.459 0 411.76 0.63606 472.22 0.63606z"/>
<filter id="e" x="-.3%" y="-.1%" width="100.6%" height="100.3%">
<feOffset dx="0" dy="0" in="SourceAlpha" result="shadowOffsetOuter1"/>
<feGaussianBlur in="shadowOffsetOuter1" result="shadowBlurOuter1" stdDeviation="1"/>
<feColorMatrix in="shadowBlurOuter1" values="0 0 0 0 0   0 0 0 0 0   0 0 0 0 0  0 0 0 0.04 0"/>
</filter>
<rect id="c" width="59.805" height="59.79"/>
</defs>
<g fill="none" fill-rule="evenodd">
<g transform="translate(-1443 -285)">
<g transform="translate(1532 374)">
<use fill="black" filter="url(#f)" xlink:href="#b"/>
<use fill="#FFFFFF" fill-rule="evenodd" xlink:href="#b"/>
<g transform="translate(73 92)">
<mask fill="white">
<use xlink:href="#a"/>
</mask>
<use fill="black" filter="url(#e)" xlink:href="#a"/>
<use fill="#F7F8FA" fill-rule="evenodd" xlink:href="#a"/>
</g>
<path d="m428.81 2387.8h374.1c5.622 0 10.18 4.5564 10.18 10.177 0 5.6206-4.5575 10.177-10.18 10.177h-374.1c-5.622 0-10.18-4.5564-10.18-10.177 0-5.6206 4.5575-10.177 10.18-10.177z" fill="#F0F3F5"/>
<g transform="translate(170.51 92.865)" opacity=".4">
<g transform="translate(871.63 50.885)" fill="#000">
<path d="m8.9071 2.5442c-3.5138 0-6.3622 2.8477-6.3622 6.3606v15.265c0 3.5129 2.8485 6.3606 6.3622 6.3606h45.808c3.5138 0 6.3622-2.8477 6.3622-6.3606v-15.265c0-3.5129-2.8485-6.3606-6.3622-6.3606h-45.808zm0-2.5442h45.808c4.9193-9.0343e-16 8.9071 3.9868 8.9071 8.9049v15.265c0 4.918-3.9879 8.9049-8.9071 8.9049h-45.808c-4.9193 0-8.9071-3.9868-8.9071-8.9049v-15.265c1.6579e-15 -4.918 3.9879-8.9049 8.9071-8.9049z" fill-rule="nonzero"/>
<path d="m8.906 5.0885h45.81c2.1076 0 3.8162 1.7086 3.8162 3.8162v15.266c0 2.1076-1.7086 3.8162-3.8162 3.8162h-45.81c-2.1076 0-3.8162-1.7086-3.8162-3.8162v-15.266c0-2.1076 1.7086-3.8162 3.8162-3.8162z"/>
<path d="m67.44 11.609c2.1953 0.56488 3.8173 2.5571 3.8173 4.9282s-1.6221 4.3633-3.8173 4.9282v-9.8564z"/>
</g>
<g transform="translate(836.29 42.278) rotate(-45) translate(-29.902 -29.895)">
<mask id="d" fill="white">
<use xlink:href="#c"/>
</mask>
<g fill="#000" mask="url(#d)">
<g transform="translate(-33.084 26.715)">
<ellipse cx="33.084" cy="33.075" rx="11.452" ry="11.449" fill-rule="evenodd"/>
<path d="m33.084 58.518c14.055 0 25.449-11.391 25.449-25.442s-11.394-25.442-25.449-25.442c-14.055 0-25.449 11.391-25.449 25.442s11.394 25.442 25.449 25.442zm0 7.6327c-18.272 0-33.084-14.808-33.084-33.075 0-18.267 14.812-33.075 33.084-33.075 18.272 0 33.084 14.808 33.084 33.075 0 18.267-14.812 33.075-33.084 33.075z" fill-rule="nonzero"/>
<path d="m33.084 48.341c8.433 0 15.269-6.8346 15.269-15.265s-6.8363-15.265-15.269-15.265c-8.433 0-15.269 6.8346-15.269 15.265s6.8363 15.265 15.269 15.265zm0 6.3606c-11.947 0-21.632-9.6823-21.632-21.626s9.6848-21.626 21.632-21.626c11.947 0 21.632 9.6823 21.632 21.626s-9.6848 21.626-21.632 21.626z" fill-rule="nonzero"/>
</g>
</g>
</g>
<g transform="translate(746.93 52.157)" fill="#000">
<path d="m2.5449 19.082h5.0898c1.4055 0 2.5449 1.1391 2.5449 2.5442v7.6327c0 1.4051-1.1394 2.5442-2.5449 2.5442h-5.0898c-1.4055 0-2.5449-1.1391-2.5449-2.5442v-7.6327c-1.7212e-16 -1.4051 1.1394-2.5442 2.5449-2.5442zm13.997-6.3606h5.0898c1.4055 0 2.5449 1.1391 2.5449 2.5442v13.993c0 1.4051-1.1394 2.5442-2.5449 2.5442h-5.0898c-1.4055 0-2.5449-1.1391-2.5449-2.5442v-13.993c0-1.4051 1.1394-2.5442 2.5449-2.5442zm13.997-6.3606h5.0898c1.4055 0 2.5449 1.1391 2.5449 2.5442v20.354c0 1.4051-1.1394 2.5442-2.5449 2.5442h-5.0898c-1.4055 0-2.5449-1.1391-2.5449-2.5442v-20.354c0-1.4051 1.1394-2.5442 2.5449-2.5442zm13.997-6.3606h5.0898c1.4055-2.5812e-16 2.5449 1.1391 2.5449 2.5442v26.715c0 1.4051-1.1394 2.5442-2.5449 2.5442h-5.0898c-1.4055 0-2.5449-1.1391-2.5449-2.5442v-26.715c0-1.4051 1.1394-2.5442 2.5449-2.5442z"/>
</g>
<g transform="translate(0 36.892)" fill="#000">
<text fill-opacity=".87" font-family="PingFangTC-Semibold, PingFang TC" font-size="45.794" font-weight="500">
<tspan x="0" y="49">9 41</tspan>
</text>
<ellipse cx="34.356" cy="24.17" rx="3.8173" ry="3.8164"/>
<ellipse cx="34.356" cy="39.436" rx="3.8173" ry="3.8164"/>
</g>
</g>
<g transform="translate(536.97 100.5)" fill="#F0F3F5">
<path d="m10.816 7.6327h129.79c5.9734 0 10.816 4.8412 10.816 10.813 0 5.9719-4.8424 10.813-10.816 10.813h-129.79c-5.9734 0-10.816-4.8412-10.816-10.813-7.3153e-16 -5.9719 4.8424-10.813 10.816-10.813z"/>
<ellipse cx="208.68" cy="17.81" rx="17.814" ry="17.81"/>
</g>
</g>
</g>
</g>
</svg>
