<svg viewBox="0 0 752 1398" version="1.1" xmlns="http://www.w3.org/2000/svg" xmlns:xlink="http://www.w3.org/1999/xlink">
    <defs>
        <filter x="-20.6%" y="-10.5%" width="141.1%" height="121.0%" filterUnits="objectBoundingBox" id="filter-1">
            <feOffset dx="0" dy="20" in="SourceAlpha" result="shadowOffsetOuter1"></feOffset>
            <feGaussianBlur stdDeviation="25" in="shadowOffsetOuter1" result="shadowBlurOuter1"></feGaussianBlur>
            <feColorMatrix values="0 0 0 0 0   0 0 0 0 0   0 0 0 0 0  0 0 0 0.23230865 0" type="matrix" in="shadowBlurOuter1" result="shadowMatrixOuter1"></feColorMatrix>
            <feMerge>
                <feMergeNode in="shadowMatrixOuter1"></feMergeNode>
                <feMergeNode in="SourceGraphic"></feMergeNode>
            </feMerge>
        </filter>
        <linearGradient x1="50%" y1="0%" x2="50%" y2="100%" id="linearGradient-2">
            <stop stop-color="#747474" offset="0%"></stop>
            <stop stop-color="#333333" offset="100%"></stop>
        </linearGradient>
        <linearGradient x1="50%" y1="0%" x2="50%" y2="100%" id="linearGradient-3">
            <stop stop-color="#747474" offset="0%"></stop>
            <stop stop-color="#333333" offset="100%"></stop>
        </linearGradient>
        <linearGradient x1="50%" y1="0%" x2="50%" y2="100%" id="linearGradient-4">
            <stop stop-color="#747474" offset="0%"></stop>
            <stop stop-color="#333333" offset="100%"></stop>
        </linearGradient>
        <filter x="-1.0%" y="-0.5%" width="101.9%" height="100.9%" filterUnits="objectBoundingBox" id="filter-5">
            <feGaussianBlur stdDeviation="2" in="SourceGraphic"></feGaussianBlur>
        </filter>
        <linearGradient x1="50%" y1="0%" x2="50%" y2="100%" id="linearGradient-6">
            <stop stop-color="#FFFFFF" stop-opacity="0.394304801" offset="0%"></stop>
            <stop stop-color="#A5A5A5" stop-opacity="0.49719769" offset="100%"></stop>
        </linearGradient>
        <filter x="-1.2%" y="-70.6%" width="102.4%" height="241.2%" filterUnits="objectBoundingBox" id="filter-7">
            <feGaussianBlur stdDeviation="2" in="SourceGraphic"></feGaussianBlur>
        </filter>
        <linearGradient x1="50%" y1="0%" x2="50%" y2="100%" id="linearGradient-8">
            <stop stop-color="#FFFFFF" stop-opacity="0.394304801" offset="0%"></stop>
            <stop stop-color="#A5A5A5" stop-opacity="0.49719769" offset="100%"></stop>
        </linearGradient>
        <filter x="-1.8%" y="-85.7%" width="103.6%" height="271.4%" filterUnits="objectBoundingBox" id="filter-9">
            <feGaussianBlur stdDeviation="3" in="SourceGraphic"></feGaussianBlur>
        </filter>
        <filter x="-33.4%" y="-1.3%" width="166.7%" height="102.6%" filterUnits="objectBoundingBox" id="filter-10">
            <feGaussianBlur stdDeviation="5.39341518" in="SourceGraphic"></feGaussianBlur>
        </filter>
        <filter x="-33.4%" y="-1.3%" width="166.7%" height="102.6%" filterUnits="objectBoundingBox" id="filter-11">
            <feGaussianBlur stdDeviation="5.39341518" in="SourceGraphic"></feGaussianBlur>
        </filter>
        <filter x="-33.3%" y="-55.7%" width="166.5%" height="211.5%" filterUnits="objectBoundingBox" id="filter-12">
            <feGaussianBlur stdDeviation="1.33091518" in="SourceGraphic"></feGaussianBlur>
        </filter>
        <filter x="-25.0%" y="-38.7%" width="150.0%" height="177.4%" filterUnits="objectBoundingBox" id="filter-13">
            <feGaussianBlur stdDeviation="1" in="SourceGraphic"></feGaussianBlur>
        </filter>
        <filter x="-59.5%" y="-36.9%" width="218.9%" height="173.8%" filterUnits="objectBoundingBox" id="filter-14">
            <feGaussianBlur stdDeviation="1.37276786" in="SourceGraphic"></feGaussianBlur>
        </filter>
        <linearGradient x1="50%" y1="0%" x2="50%" y2="99.6691645%" id="linearGradient-15">
            <stop stop-color="#222222" offset="0%"></stop>
            <stop stop-color="#2C2C2C" offset="100%"></stop>
        </linearGradient>
        <linearGradient x1="218.191964%" y1="50%" x2="0%" y2="50%" id="linearGradient-16">
            <stop stop-color="#FFFFFF" stop-opacity="0" offset="0%"></stop>
            <stop stop-color="#C8C8C8" offset="100%"></stop>
        </linearGradient>
        <linearGradient x1="100%" y1="50%" x2="-96.3879078%" y2="50%" id="linearGradient-17">
            <stop stop-color="#ECECEC" stop-opacity="0.755661232" offset="0%"></stop>
            <stop stop-color="#000000" stop-opacity="0" offset="100%"></stop>
        </linearGradient>
        <linearGradient x1="157.57804%" y1="50%" x2="0.789718887%" y2="50%" id="linearGradient-18">
            <stop stop-color="#FFFFFF" stop-opacity="0" offset="0%"></stop>
            <stop stop-color="#C8C8C8" offset="100%"></stop>
        </linearGradient>
        <linearGradient x1="100%" y1="50%" x2="-212.428629%" y2="50%" id="linearGradient-19">
            <stop stop-color="#ECECEC" stop-opacity="0.755661232" offset="0%"></stop>
            <stop stop-color="#000000" stop-opacity="0" offset="100%"></stop>
        </linearGradient>
    </defs>
    <g id="Page-1" stroke="none" stroke-width="1" fill="none" fill-rule="evenodd">
        <g id="iPhone-X-Mockup-Freebie" transform="translate(-224.000000, -175.000000)">
            <g id="iPhone-X-Dark" filter="url(#filter-1)" transform="translate(274.000000, 205.000000)">
                <g id="Body">
                    <g>
                        <g id="Buttons" transform="translate(0.000000, 176.000000)">
                            <rect id="Silent-Button" fill="url(#linearGradient-2)" x="0" y="0" width="10" height="50" rx="5"></rect>
                            <path d="M0,98.0000839 C0,95.2386138 2.24419519,93 5,93 L5,93 C7.76142375,93 10,95.2299306 10,98.0000839 L10,180.999916 C10,183.761386 7.75580481,186 5,186 L5,186 C2.23857625,186 0,183.770069 0,180.999916 L0,98.0000839 Z" id="Volume-Up-Button" fill="url(#linearGradient-3)"></path>
                            <path d="M0,216.000084 C0,213.238614 2.24419519,211 5,211 L5,211 C7.76142375,211 10,213.229931 10,216.000084 L10,298.999916 C10,301.761386 7.75580481,304 5,304 L5,304 C2.23857625,304 0,301.770069 0,298.999916 L0,216.000084 Z" id="Volume-Down-Button" fill="url(#linearGradient-3)"></path>
                            <path d="M642,128.990768 C642,126.234443 644.244195,124 647,124 L647,124 C649.761424,124 652,126.236826 652,128.990768 L652,269.009232 C652,271.765557 649.755805,274 647,274 L647,274 C644.238576,274 642,271.763174 642,269.009232 L642,128.990768 Z" id="Power-Button" fill="url(#linearGradient-4)"></path>
                        </g>
                        <path d="M6,99.998519 C6,44.7708619 50.7809482,0 106,0 L546,0 C601.228475,0 646,44.7741982 646,99.998519 L646,1198.00148 C646,1253.22914 601.219052,1298 546,1298 L106,1298 C50.771525,1298 6,1253.2258 6,1198.00148 L6,99.998519 Z" id="Body-Shape" fill="#000100"></path>
                        <path d="M13,104.000156 L13,1193.99984 C13,1248.11879 56.8785103,1292 110.999361,1292 L541.000639,1292 C595.12401,1292 639,1248.12374 639,1193.99984 L639,104.000156 C639,49.881206 595.12149,6 541.000639,6 L110.999361,6 C56.8759899,6 13,49.8762558 13,104.000156 Z" id="breezel" stroke="#FFFFFF" stroke-width="4" filter="url(#filter-5)"></path>
                        <g id="Shadows" transform="translate(20.000000, 11.000000)">
                            <path d="M92.7631086,8.59656098e-16 C107.654494,8.59656098e-16 480.86985,5.68577638e-14 508.325843,0 C535.781835,-5.68434189e-14 553,8.5 553,8.5 L304.267322,8.5 L56,8.5 C56,8.5 77.8717228,8.59656098e-16 92.7631086,8.59656098e-16 Z" id="Shadow" fill="url(#linearGradient-6)" opacity="0.801007699" filter="url(#filter-7)"></path>
                            <path d="M92.7631086,1267.5 C107.654494,1267.5 480.86985,1267.5 508.325843,1267.5 C535.781835,1267.5 553,1278 553,1278 L304.267322,1278 L56,1278 C56,1278 77.8717228,1267.5 92.7631086,1267.5 Z" id="Shadow" fill="url(#linearGradient-8)" opacity="0.801007699" filter="url(#filter-9)" transform="translate(304.500000, 1272.750000) scale(1, -1) translate(-304.500000, -1272.750000) "></path>
                            <path d="M48.5,15 C48.5,15 25.5,32.5 19.5,47.5 C13.5,62.5 9,78 9,78 C9,78 5.5,1052.9217 5.5,1200 C5.5,1205 10.1208018,1213.97665 14,1221.5 C17.8791982,1229.02335 35,1253.5 35,1253.5 C35,1253.5 13.5,1235 7.5,1221.5 C1.5,1208 1.20792265e-13,1199 1.20792265e-13,1199 L1.20792265e-13,71.5 C1.20792265e-13,71.5 4.26011427,52.4211368 18.5,35 C32.7398857,17.5788632 48.5,15 48.5,15 Z" id="Side-Shadow" fill-opacity="0.398975317" fill="#ACACAC" filter="url(#filter-10)"></path>
                            <path d="M610.5,15 C610.5,15 587.5,32.5 581.5,47.5 C575.5,62.5 571,78 571,78 C571,78 566.5,1052.9217 566.5,1200 C566.5,1205 572.120802,1213.97665 576,1221.5 C579.879198,1229.02335 597,1253.5 597,1253.5 C597,1253.5 575.5,1235 569.5,1221.5 C563.5,1208 562,1199 562,1199 L562,78 C562,78 566.260114,52.4211368 580.5,35 C594.739886,17.5788632 610.5,15 610.5,15 Z" id="Side-Shadow" fill="#ACACAC" opacity="0.403023098" filter="url(#filter-11)" transform="translate(586.250000, 634.250000) scale(-1, 1) translate(-586.250000, -634.250000) "></path>
                        </g>
                        <g id="Front-Camera" transform="translate(383.000000, 42.000000)">
                            <g>
                                <circle id="Camera-Shape" fill="#202022" cx="11" cy="11" r="11"></circle>
                                <path d="M11,17.164129 C14.3137085,17.164129 17,14.4778375 17,11.164129 C17,7.85042054 14.3137085,12.664129 11,12.664129 C7.6862915,12.664129 5,7.85042054 5,11.164129 C5,14.4778375 7.6862915,17.164129 11,17.164129 Z" id="Lens-Effect" fill="#133456" filter="url(#filter-12)"></path>
                                <path d="M11,13.5 C14.3137085,13.5 17,14.8137085 17,11.5 C17,8.1862915 14.3137085,6 11,6 C7.6862915,6 5,8.1862915 5,11.5 C5,14.8137085 7.6862915,13.5 11,13.5 Z" id="Lens-Effect" fill="#2771BD" filter="url(#filter-13)"></path>
                                <path d="M7.5,17.164129 C8.15479115,17.164129 13.5960426,16.5962668 14,16.2067639 C14.4039574,15.817261 13.7886375,14.0375695 13,13.0530905 C11.9187846,11.7033779 14.2008009,8.05761539 14,6.63311243 C13.7991991,5.20860946 11.8854806,6.63311243 11.5,6.63311243 C10.1192881,6.63311243 10,11.5757338 10,13.0530905 C10,14.5304471 6.11928813,17.164129 7.5,17.164129 Z" id="Divider" fill="#000000" filter="url(#filter-14)"></path>
                            </g>
                        </g>
                        <g id="Speaker" transform="translate(285.000000, 48.000000)" fill="url(#linearGradient-15)">
                            <rect id="Rectangle" x="0" y="0" width="79" height="10" rx="5"></rect>
                        </g>
                        <g id="Network-Line" transform="translate(6.000000, 104.000000)">
                            <g>
                                <g>
                                    <rect id="2" fill="url(#linearGradient-16)" x="633" y="0" width="7" height="13"></rect>
                                    <rect id="1" fill="url(#linearGradient-17)" x="0" y="0" width="7" height="13"></rect>
                                </g>
                                <g id="Network-Line-Copy" transform="translate(0.000000, 1057.000000)">
                                    <rect id="2" fill="url(#linearGradient-18)" x="634" y="0" width="6" height="13"></rect>
                                    <rect id="1" fill="url(#linearGradient-19)" x="0" y="0" width="5" height="13"></rect>
                                </g>
                            </g>
                        </g>
                    </g>
                </g>
            </g>
        </g>
    </g>
</svg>