<svg width="712px" height="1382px" viewBox="0 0 712 1382" version="1.1" xmlns="http://www.w3.org/2000/svg" xmlns:xlink="http://www.w3.org/1999/xlink">
    <defs>
        <filter x="-25.0%" y="-12.6%" width="150.0%" height="125.1%" filterUnits="objectBoundingBox" id="filter-1">
            <feOffset dx="5" dy="50" in="SourceAlpha" result="shadowOffsetOuter1"></feOffset>
            <feGaussianBlur stdDeviation="15" in="shadowOffsetOuter1" result="shadowBlurOuter1"></feGaussianBlur>
            <feColorMatrix values="0 0 0 0 0   0 0 0 0 0   0 0 0 0 0  0 0 0 0.1 0" type="matrix" in="shadowBlurOuter1" result="shadowMatrixOuter1"></feColorMatrix>
            <feMerge>
                <feMergeNode in="shadowMatrixOuter1"></feMergeNode>
                <feMergeNode in="SourceGraphic"></feMergeNode>
            </feMerge>
        </filter>
        <path d="M6,99.998519 C6,44.7708619 50.7809482,0 106,0 L546,0 C601.228475,0 646,44.7741982 646,99.998519 L646,1198.00148 C646,1253.22914 601.219052,1298 546,1298 L106,1298 C50.771525,1298 6,1253.2258 6,1198.00148 L6,99.998519 Z" id="path-2"></path>
        <filter x="-1.1%" y="-0.5%" width="102.2%" height="101.1%" filterUnits="objectBoundingBox" id="filter-3">
            <feGaussianBlur stdDeviation="3" in="SourceAlpha" result="shadowBlurInner1"></feGaussianBlur>
            <feOffset dx="3" dy="8" in="shadowBlurInner1" result="shadowOffsetInner1"></feOffset>
            <feComposite in="shadowOffsetInner1" in2="SourceAlpha" operator="arithmetic" k2="-1" k3="1" result="shadowInnerInner1"></feComposite>
            <feColorMatrix values="0 0 0 0 0.708041029   0 0 0 0 0.708041029   0 0 0 0 0.708041029  0 0 0 0.123329937 0" type="matrix" in="shadowInnerInner1" result="shadowMatrixInner1"></feColorMatrix>
            <feGaussianBlur stdDeviation="1.5" in="SourceAlpha" result="shadowBlurInner2"></feGaussianBlur>
            <feOffset dx="-6" dy="0" in="shadowBlurInner2" result="shadowOffsetInner2"></feOffset>
            <feComposite in="shadowOffsetInner2" in2="SourceAlpha" operator="arithmetic" k2="-1" k3="1" result="shadowInnerInner2"></feComposite>
            <feColorMatrix values="0 0 0 0 0   0 0 0 0 0   0 0 0 0 0  0 0 0 0.02 0" type="matrix" in="shadowInnerInner2" result="shadowMatrixInner2"></feColorMatrix>
            <feMerge>
                <feMergeNode in="shadowMatrixInner1"></feMergeNode>
                <feMergeNode in="shadowMatrixInner2"></feMergeNode>
            </feMerge>
        </filter>
        <linearGradient x1="50%" y1="0%" x2="50%" y2="99.6691645%" id="linearGradient-4">
            <stop stop-color="#222222" offset="0%"></stop>
            <stop stop-color="#2A2A2A" offset="100%"></stop>
        </linearGradient>
        <filter x="-33.3%" y="-55.7%" width="166.5%" height="211.5%" filterUnits="objectBoundingBox" id="filter-5">
            <feGaussianBlur stdDeviation="1.33091518" in="SourceGraphic"></feGaussianBlur>
        </filter>
        <filter x="-25.0%" y="-38.7%" width="150.0%" height="177.4%" filterUnits="objectBoundingBox" id="filter-6">
            <feGaussianBlur stdDeviation="1" in="SourceGraphic"></feGaussianBlur>
        </filter>
        <filter x="-59.5%" y="-36.9%" width="218.9%" height="173.8%" filterUnits="objectBoundingBox" id="filter-7">
            <feGaussianBlur stdDeviation="1.37276786" in="SourceGraphic"></feGaussianBlur>
        </filter>
        <linearGradient x1="-47.2205529%" y1="50%" x2="135.096154%" y2="50%" id="linearGradient-8">
            <stop stop-color="#FFFFFF" stop-opacity="0" offset="0%"></stop>
            <stop stop-color="#BBBBBB" offset="100%"></stop>
        </linearGradient>
        <linearGradient x1="-55.6919643%" y1="50%" x2="100%" y2="50%" id="linearGradient-9">
            <stop stop-color="#E2E2E2" offset="0%"></stop>
            <stop stop-color="#838383" stop-opacity="0" offset="100%"></stop>
        </linearGradient>
        <linearGradient x1="0%" y1="50%" x2="100%" y2="50%" id="linearGradient-10">
            <stop stop-color="#FFFFFF" stop-opacity="0" offset="0%"></stop>
            <stop stop-color="#C8C8C8" offset="100%"></stop>
        </linearGradient>
        <linearGradient x1="-76.6929921%" y1="50%" x2="100%" y2="50%" id="linearGradient-11">
            <stop stop-color="#D0D0D0" stop-opacity="0.565245697" offset="0%"></stop>
            <stop stop-color="#000000" stop-opacity="0" offset="100%"></stop>
        </linearGradient>
    </defs>
    <g id="Page-1" stroke="none" stroke-width="1" fill="none" fill-rule="evenodd">
        <g id="iPhone-X-Mockup-Freebie" transform="translate(-1449.000000, -203.000000)">
            <g id="iPhone-X-White" filter="url(#filter-1)" transform="translate(1474.000000, 205.000000)">
                <g id="iPhone-X-Body-White">
                    <g>
                        <g id="Buttons" transform="translate(0.000000, 176.000000)" fill="#FFFFFF">
                            <rect id="Silent-Button" x="0" y="0" width="10" height="50" rx="5"></rect>
                            <path d="M0,98.0000839 C0,95.2386138 2.24419519,93 5,93 L5,93 C7.76142375,93 10,95.2299306 10,98.0000839 L10,180.999916 C10,183.761386 7.75580481,186 5,186 L5,186 C2.23857625,186 0,183.770069 0,180.999916 L0,98.0000839 Z" id="Volume-Up-Button"></path>
                            <path d="M0,216.000084 C0,213.238614 2.24419519,211 5,211 L5,211 C7.76142375,211 10,213.229931 10,216.000084 L10,298.999916 C10,301.761386 7.75580481,304 5,304 L5,304 C2.23857625,304 0,301.770069 0,298.999916 L0,216.000084 Z" id="Volume-Down-Button"></path>
                            <path d="M642,128.990768 C642,126.234443 644.244195,124 647,124 L647,124 C649.761424,124 652,126.236826 652,128.990768 L652,269.009232 C652,271.765557 649.755805,274 647,274 L647,274 C644.238576,274 642,271.763174 642,269.009232 L642,128.990768 Z" id="Power-Button"></path>
                        </g>
                        <g id="Body-Shape">
                            <use fill="#FFFFFF" fill-rule="evenodd" xlink:href="#path-2"></use>
                            <use fill="black" fill-opacity="1" filter="url(#filter-3)" xlink:href="#path-2"></use>
                        </g>
                        <g id="Front-Speaker" transform="translate(285.000000, 48.000000)" fill="url(#linearGradient-4)">
                            <rect x="0" y="0" width="79" height="10" rx="5"></rect>
                        </g>
                        <g id="Front-Camera-Copy" transform="translate(383.000000, 42.000000)">
                            <g>
                                <circle id="Camera-Shape" fill="#202022" cx="11" cy="11" r="11"></circle>
                                <path d="M11,17.164129 C14.3137085,17.164129 17,14.4778375 17,11.164129 C17,7.85042054 14.3137085,12.664129 11,12.664129 C7.6862915,12.664129 5,7.85042054 5,11.164129 C5,14.4778375 7.6862915,17.164129 11,17.164129 Z" id="Lens-Effect" fill="#133456" filter="url(#filter-5)"></path>
                                <path d="M11,13.5 C14.3137085,13.5 17,14.8137085 17,11.5 C17,8.1862915 14.3137085,6 11,6 C7.6862915,6 5,8.1862915 5,11.5 C5,14.8137085 7.6862915,13.5 11,13.5 Z" id="Lens-Effect" fill="#2771BD" filter="url(#filter-6)"></path>
                                <path d="M7.5,17.164129 C8.15479115,17.164129 13.5960426,16.5962668 14,16.2067639 C14.4039574,15.817261 13.7886375,14.0375695 13,13.0530905 C11.9187846,11.7033779 14.2008009,8.05761539 14,6.63311243 C13.7991991,5.20860946 11.8854806,6.63311243 11.5,6.63311243 C10.1192881,6.63311243 10,11.5757338 10,13.0530905 C10,14.5304471 6.11928813,17.164129 7.5,17.164129 Z" id="Divider" fill="#000000" filter="url(#filter-7)"></path>
                            </g>
                        </g>
                        <g id="Network-Line-" opacity="0.617583786" transform="translate(6.000000, 104.000000)">
                            <g id="Network-Line">
                                <rect id="2" fill="url(#linearGradient-8)" x="627" y="0" width="13" height="13"></rect>
                                <rect id="1" fill="url(#linearGradient-9)" x="0" y="0" width="14" height="13"></rect>
                            </g>
                            <g id="Network-Line-Copy" transform="translate(0.000000, 1057.000000)">
                                <rect id="2" fill="url(#linearGradient-10)" x="625" y="0" width="15" height="13"></rect>
                                <rect id="1" fill="url(#linearGradient-11)" x="0" y="0" width="14" height="13"></rect>
                            </g>
                        </g>
                    </g>
                </g>
            </g>
        </g>
    </g>
</svg>